HIERARCHY
ROOT Hips
{
  OFFSET 52.4665 84.3452 5.34713
  CHANNELS 6 Xposition Yposition Zposition Zrotation Xrotation Yrotation
  JOINT spine
  {
    OFFSET 0 5.95438 0.342407
    CHANNELS 3 Zrotation Xrotation Yrotation
    JOINT spine1
    {
      OFFSET 0 8.85602 0
      CHANNELS 3 Zrotation Xrotation Yrotation
      JOINT spine2
      {
        OFFSET 0 8.48567 0
        CHANNELS 3 Zrotation Xrotation Yrotation
        JOINT Neck
        {
          OFFSET 0 21.7863 1.0387
          CHANNELS 3 Zrotation Xrotation Yrotation
          JOINT Head
          {
            OFFSET 0 6.5822 0
            CHANNELS 3 Zrotation Xrotation Yrotation
            End Site
            {
              OFFSET 0 15.9326 -5.25436
            }
          }
        }
        JOINT RightShoulder
        {
          OFFSET -3.57307 9.16386 -0.497525
          CHANNELS 3 Zrotation Xrotation Yrotation
          JOINT RightArm
          {
            OFFSET 0 12.0192 0
            CHANNELS 3 Zrotation Xrotation Yrotation
            JOINT RightArmRoll
            {
              OFFSET 0 6.06755 0
              CHANNELS 3 Zrotation Xrotation Yrotation
              JOINT RightForeArm
              {
                OFFSET 0 17.6726 0
                CHANNELS 3 Zrotation Xrotation Yrotation
                JOINT RightForeArmRoll
                {
                  OFFSET 0 6.80872 0
                  CHANNELS 3 Zrotation Xrotation Yrotation
                  JOINT RightHand
                  {
                    OFFSET 0 13.6636 0
                    CHANNELS 3 Zrotation Xrotation Yrotation
                    End Site
                    {
                      OFFSET 0 0 0
                    }
                  }
                }
              }
            }
          }
        }
        JOINT LeftShoulder
        {
          OFFSET 3.57307 9.16386 -0.497525
          CHANNELS 3 Zrotation Xrotation Yrotation
          JOINT LeftArm
          {
            OFFSET 0 12.0192 0
            CHANNELS 3 Zrotation Xrotation Yrotation
            JOINT LeftArmRoll
            {
              OFFSET 0 6.06755 0
              CHANNELS 3 Zrotation Xrotation Yrotation
              JOINT LeftForeArm
              {
                OFFSET 0 17.6726 0
                CHANNELS 3 Zrotation Xrotation Yrotation
                JOINT LeftForeArmRoll
                {
                  OFFSET 0 6.80872 0
                  CHANNELS 3 Zrotation Xrotation Yrotation
                  JOINT LeftHand
                  {
                    OFFSET 0 13.6636 0
                    CHANNELS 3 Zrotation Xrotation Yrotation
                    End Site
                    {
                      OFFSET 0 0 0
                    }
                  }
                }
              }
            }
          }
        }
      }
    }
  }
  JOINT RightUpLeg
  {
    OFFSET -5.27774 -0.967797 -0.811858
    CHANNELS 3 Zrotation Xrotation Yrotation
    JOINT RightUpLegRoll
    {
      OFFSET 0 16.0214 0
      CHANNELS 3 Zrotation Xrotation Yrotation
      JOINT RightLeg
      {
        OFFSET 0 -19.8401 0
        CHANNELS 3 Zrotation Xrotation Yrotation
        JOINT RightLegRoll
        {
          OFFSET 0 19.905 0
          CHANNELS 3 Zrotation Xrotation Yrotation
          JOINT RightFoot
          {
            OFFSET 0 16.5675 0
            CHANNELS 3 Zrotation Xrotation Yrotation
            JOINT RightToeBase
            {
              OFFSET 0 13.8496 0
              CHANNELS 3 Zrotation Xrotation Yrotation
              End Site
              {
                OFFSET 0.00587034 6.70727 -0.773117
              }
            }
          }
        }
      }
    }
  }
  JOINT LeftUpLeg
  {
    OFFSET 5.27774 -0.967797 -0.811858
    CHANNELS 3 Zrotation Xrotation Yrotation
    JOINT LeftUpLegRoll
    {
      OFFSET 0 16.0215 0
      CHANNELS 3 Zrotation Xrotation Yrotation
      JOINT LeftLeg
      {
        OFFSET 0 19.84 0
        CHANNELS 3 Zrotation Xrotation Yrotation
        JOINT LeftLegRoll
        {
          OFFSET 0 20.089 0
          CHANNELS 3 Zrotation Xrotation Yrotation
          JOINT LeftFoot
          {
            OFFSET 0 16.3835 0
            CHANNELS 3 Zrotation Xrotation Yrotation
            JOINT LeftToeBase
            {
              OFFSET 0 13.8496 0
              CHANNELS 3 Zrotation Xrotation Yrotation
              End Site
              {
                OFFSET -0.0263083 6.70728 -0.773117
              }
            }
          }
        }
      }
    }
  }
}
MOTION
Frames: 9
Frame Time: 0.00208333
51.0556 84.318 2.90545 -1.20436 -6.51446 8.24245 0.11055 -1.29849 0.115539 0.226505 1.40831 0.218854 0.224053 3.05336 0.210635 -22.5427 8.42718 -4.75218 36.5883 5.97043 -10.6695 7.00487 -5.35855 1.56413 61.5243 84.3487 14.3563 1.68683e-006 2.7904e-006 1.05217e-005 -157.881 85.6135 153.24 2.7024e-006 3.91773e-007 -3 8.03007 -4.95137 0.697632 -90.1914 -7.92333 5.69231 -90.7923 26.5928 -4.47941 3.52379e-006 1.98495e-006 3.24429e-006 3.64061 -0.0260618 1.99251 -6.91622e-006 -6.92658e-007 3.0116 -8.0301 -4.95138 -0.697629 -177.061 -3.4396 1.17281 -180 7.01532e-015 178.861 178.239 5.15293 179.889 2.5591e-006 -2.09025e-006 0.0353482 -18.4486 67.6838 19.2576 8.13649 25.2326 -3.48773 -175.299 2.82524 -2.25691 4.54188e-006 -4.6773e-006 -1.09372 -2.40438 -14.0103 0.125607 2.91255e-006 -6.39416e-006 -0.250588 20.5985 70.2182 -21.5901 -8.13649 25.2327 3.48774 
51.0616 84.3153 2.90969 -1.19416 -6.50353 8.23949 0.110957 -1.30185 0.114985 0.226518 1.40117 0.21801 0.224076 3.04623 0.209374 -22.4712 8.46602 -4.74234 36.5068 5.96086 -10.643 7.00385 -5.41256 1.47776 59.5798 84.1378 16.415 1.68683e-006 2.7904e-006 1.05217e-005 -156.885 85.7751 152.242 2.7024e-006 3.91773e-007 -3 8.03007 -4.95137 0.697632 -90.1572 -7.89855 5.68416 -90.8086 26.5493 -4.47706 3.52379e-006 1.98495e-006 3.24429e-006 3.64061 -0.0260618 1.99251 -6.91622e-006 -6.92658e-007 3.0116 -8.0301 -4.95138 -0.697629 -177.079 -3.42933 1.17688 -180 7.01532e-015 178.861 178.244 5.14914 179.888 2.5591e-006 -2.09025e-006 0.0353467 -18.4495 67.6851 19.2583 8.13649 25.2326 -3.48773 -175.319 2.81989 -2.24813 4.54188e-006 -4.6773e-006 -1.09365 -2.40888 -13.991 0.124607 2.91255e-006 -6.39416e-006 -0.24968 20.5919 70.2119 -21.5839 -8.13649 25.2327 3.48774 
51.0711 84.3096 2.92134 -1.18386 -6.49305 8.23613 0.111334 -1.30517 0.114423 0.226504 1.39413 0.217145 0.224072 3.03919 0.208133 -22.3981 8.50721 -4.73278 36.424 5.9496 -10.6161 7.00519 -5.46715 1.39021 57.7729 83.9205 18.3362 1.68683e-006 2.7904e-006 1.05217e-005 -155.778 85.9399 151.132 2.7024e-006 3.91773e-007 -3 8.03007 -4.95137 0.697632 -90.1232 -7.87326 5.67584 -90.8244 26.5057 -4.47506 3.52379e-006 1.98495e-006 3.24429e-006 3.64061 -0.0260618 1.99251 -6.91622e-006 -6.92658e-007 3.0116 -8.0301 -4.95138 -0.697629 -177.098 -3.41963 1.18123 -180 7.01532e-015 178.861 178.248 5.14553 179.888 2.5591e-006 -2.09025e-006 0.0353451 -18.4503 67.6863 19.259 8.13649 25.2326 -3.48773 -175.339 2.81434 -2.23966 4.54188e-006 -4.6773e-006 -1.09358 -2.41369 -13.9724 0.123581 2.91255e-006 -6.39416e-006 -0.24878 20.5851 70.2054 -21.5776 -8.13649 25.2327 3.48774 
51.0855 84.3139 2.91637 -1.17354 -6.48311 8.23238 0.111662 -1.30843 0.113857 0.226454 1.38723 0.216258 0.224032 3.03229 0.206923 -22.3229 8.55033 -4.7236 36.3389 5.93679 -10.5887 7.00962 -5.52224 1.30153 56.0966 83.6978 20.1266 1.68683e-006 2.7904e-006 1.05217e-005 -154.542 86.1076 149.895 2.7024e-006 3.91773e-007 -3 8.03007 -4.95137 0.697632 -90.0894 -7.84748 5.66736 -90.84 26.4618 -4.47339 3.52379e-006 1.98495e-006 3.24429e-006 3.64061 -0.0260618 1.99251 -6.91622e-006 -6.92658e-007 3.0116 -8.0301 -4.95138 -0.697629 -177.116 -3.41066 1.1859 -180 7.01532e-015 178.861 178.252 5.14216 179.888 2.5591e-006 -2.09025e-006 0.0353435 -18.451 67.6874 19.2596 8.13649 25.2326 -3.48773 -175.358 2.80866 -2.23157 4.54188e-006 -4.6773e-006 -1.09352 -2.41881 -13.9548 0.122533 2.91255e-006 -6.39416e-006 -0.247899 20.5782 70.1989 -21.5711 -8.13649 25.2327 3.48774 
51.0972 84.3178 2.91187 -1.16324 -6.47382 8.22821 0.111924 -1.31162 0.113292 0.226358 1.3805 0.215347 0.223946 3.02555 0.205752 -22.2449 8.59493 -4.71491 36.2507 5.9226 -10.5609 7.01789 -5.57773 1.21178 54.5434 83.4707 21.7935 1.68683e-006 2.7904e-006 1.05217e-005 -153.16 86.2775 148.511 2.7024e-006 3.91773e-007 -3 8.03007 -4.95137 0.697632 -90.0558 -7.82125 5.65872 -90.8552 26.4177 -4.47204 3.52379e-006 1.98495e-006 3.24429e-006 3.64061 -0.0260618 1.99251 -6.91622e-006 -6.92658e-007 3.0116 -8.0301 -4.95138 -0.697629 -177.135 -3.40258 1.19088 -180 7.01532e-015 178.861 178.256 5.13915 179.887 2.5591e-006 -2.09025e-006 0.0353417 -18.4517 67.6884 19.2602 8.13649 25.2326 -3.48773 -175.378 2.80293 -2.22398 4.54188e-006 -4.6773e-006 -1.09348 -2.42427 -13.9386 0.121465 2.91255e-006 -6.39416e-006 -0.247052 20.5713 70.1923 -21.5645 -8.13649 25.2327 3.48774 
51.1045 84.3134 2.922 -1.15302 -6.46527 8.22359 0.112103 -1.31473 0.112734 0.226209 1.37398 0.214412 0.223807 3.01903 0.204629 -22.1635 8.64057 -4.7068 36.1587 5.90716 -10.5323 7.03072 -5.63352 1.12102 53.1057 83.2401 23.3443 1.68683e-006 2.7904e-006 1.05217e-005 -151.608 86.4491 146.958 2.7024e-006 3.91773e-007 -3 8.03007 -4.95137 0.697632 -90.0224 -7.79457 5.64994 -90.8702 26.3735 -4.47096 3.52379e-006 1.98495e-006 3.24429e-006 3.64061 -0.0260618 1.99251 -6.91622e-006 -6.92658e-007 3.0116 -8.0301 -4.95138 -0.697629 -177.155 -3.39554 1.19621 -180 7.01532e-015 178.861 178.259 5.13662 179.887 2.5591e-006 -2.09025e-006 0.0353398 -18.4521 67.6893 19.2605 8.13649 25.2326 -3.48773 -175.397 2.79726 -2.21696 4.54188e-006 -4.6773e-006 -1.09345 -2.43008 -13.9241 0.120382 2.91255e-006 -6.39417e-006 -0.246253 20.5644 70.1858 -21.558 -8.13649 25.2327 3.48774 
51.1197 84.3168 2.91366 -1.14294 -6.45754 8.21853 0.11218 -1.31774 0.112188 0.225997 1.3677 0.213451 0.223604 3.01275 0.203564 -22.0782 8.68683 -4.69938 36.0619 5.89062 -10.5031 7.04884 -5.68953 1.02932 51.7759 83.007 24.786 1.68683e-006 2.7904e-006 1.05217e-005 -149.858 86.6218 145.206 2.7024e-006 3.91773e-007 -3 8.03007 -4.95137 0.697632 -89.9891 -7.76749 5.64101 -90.8849 26.329 -4.47015 3.52379e-006 1.98495e-006 3.24429e-006 3.64061 -0.0260618 1.99251 -6.91622e-006 -6.92658e-007 3.0116 -8.0301 -4.95138 -0.697629 -177.174 -3.38971 1.20188 -180 7.01532e-015 178.861 178.263 5.13462 179.886 2.5591e-006 -2.09025e-006 0.0353379 -18.4525 67.6899 19.2607 8.13649 25.2326 -3.48773 -175.416 2.79171 -2.2106 4.54188e-006 -4.6773e-006 -1.09343 -2.43628 -13.9116 0.119286 2.91255e-006 -6.39416e-006 -0.245514 20.5577 70.1794 -21.5515 -8.13649 25.2327 3.48774 
51.1249 84.3204 2.92468 -1.13307 -6.45074 8.213 0.112139 -1.32066 0.111659 0.225712 1.36169 0.212463 0.223329 3.00675 0.202566 -21.9883 8.73325 -4.69275 35.9595 5.87313 -10.473 7.073 -5.74566 0.936732 50.5468 82.7723 26.1258 1.68683e-006 2.7904e-006 1.05217e-005 -147.877 86.7945 143.223 2.7024e-006 3.91773e-007 -3 8.03007 -4.95137 0.697632 -89.9559 -7.74003 5.63193 -90.8995 26.2844 -4.46958 3.52379e-006 1.98495e-006 3.24429e-006 3.64061 -0.0260618 1.99251 -6.91622e-006 -6.92658e-007 3.0116 -8.0301 -4.95138 -0.697629 -177.193 -3.38524 1.20792 -180 7.01532e-015 178.86 178.266 5.13331 179.886 2.5591e-006 -2.09025e-006 0.0353358 -18.4526 67.6902 19.2607 8.13649 25.2326 -3.48773 -175.433 2.78638 -2.20501 4.54188e-006 -4.6773e-006 -1.09343 -2.44287 -13.9013 0.118181 2.91255e-006 -6.39417e-006 -0.244849 20.5511 70.1731 -21.5452 -8.13649 25.2327 3.48774 
51.1618 84.3142 2.89304 -1.12315 -6.44476 8.20716 0.111979 -1.32358 0.111129 0.22535 1.35572 0.211423 0.222977 3.00077 0.201627 -21.8947 8.78275 -4.68638 35.8527 5.85312 -10.4418 7.10287 -5.80209 0.842884 49.4042 82.5364 27.3783 1.68683e-006 2.7904e-006 1.05217e-005 -145.601 86.9682 140.945 2.7024e-006 3.91773e-007 -3 8.03007 -4.95137 0.697632 -89.9248 -7.71153 5.62259 -90.9114 26.2394 -4.47133 3.52379e-006 1.98495e-006 3.24429e-006 3.64061 -0.0260618 1.99251 -6.91622e-006 -6.92658e-007 3.0116 -8.0301 -4.95138 -0.697629 -177.212 -3.3825 1.21441 -180 7.01532e-015 178.86 178.269 5.13166 179.886 2.5591e-006 -2.09025e-006 0.0353022 -18.4522 67.69 19.2603 8.13649 25.2326 -3.48773 -175.451 2.78139 -2.2002 4.54188e-006 -4.6773e-006 -1.09343 -2.45005 -13.8934 0.117049 2.91255e-006 -6.39416e-006 -0.244244 20.5445 70.1667 -21.5387 -8.13649 25.2327 3.48774 
